<svg width="348" height="59" viewBox="0 0 348 59" fill="none" xmlns="http://www.w3.org/2000/svg">
<path d="M0 21C0 9.40202 9.40202 0 21 0H327C338.598 0 348 9.40202 348 21V59H0V21Z" fill="#161616"/>
<circle cx="323" cy="29" r="17" fill="#303030"/>
<g clip-path="url(#clip0)">
<path d="M326.761 23.1055C326.064 23.1163 325.381 23.3111 324.782 23.6703C324.184 24.0294 323.691 24.5401 323.353 25.1508C323.015 24.5401 322.521 24.0294 321.923 23.6703C321.324 23.3111 320.642 23.1163 319.944 23.1055C318.831 23.1538 317.783 23.6405 317.028 24.4592C316.273 25.278 315.873 26.3622 315.915 27.475C315.915 30.2932 318.881 33.3711 321.369 35.4579C321.925 35.9247 322.627 36.1806 323.353 36.1806C324.078 36.1806 324.78 35.9247 325.336 35.4579C327.824 33.3711 330.79 30.2932 330.79 27.475C330.832 26.3622 330.432 25.278 329.677 24.4592C328.922 23.6405 327.874 23.1538 326.761 23.1055ZM324.54 34.5096C324.207 34.7894 323.787 34.9428 323.353 34.9428C322.918 34.9428 322.498 34.7894 322.166 34.5096C318.981 31.8377 317.155 29.2743 317.155 27.475C317.112 26.6908 317.382 25.9216 317.904 25.3353C318.427 24.749 319.16 24.393 319.944 24.3451C320.728 24.393 321.461 24.749 321.983 25.3353C322.506 25.9216 322.775 26.6908 322.733 27.475C322.733 27.6394 322.798 27.797 322.914 27.9133C323.031 28.0295 323.188 28.0948 323.353 28.0948C323.517 28.0948 323.675 28.0295 323.791 27.9133C323.907 27.797 323.972 27.6394 323.972 27.475C323.93 26.6908 324.199 25.9216 324.722 25.3353C325.244 24.749 325.978 24.393 326.761 24.3451C327.545 24.393 328.278 24.749 328.801 25.3353C329.323 25.9216 329.593 26.6908 329.551 27.475C329.551 29.2743 327.724 31.8377 324.54 34.5072V34.5096Z" fill="white"/>
</g>
<circle cx="283" cy="29" r="17" fill="#303030"/>
<g clip-path="url(#clip1)">
<path d="M276.507 36.0838C276.663 36.0838 276.813 36.0216 276.924 35.9109C277.035 35.8002 277.097 35.6501 277.097 35.4935C277.098 34.5545 277.471 33.6542 278.135 32.9902C278.799 32.3263 279.7 31.9528 280.639 31.9519H284.08V32.8881C284.08 33.1215 284.149 33.3497 284.279 33.5438C284.409 33.7379 284.593 33.8892 284.809 33.9785C285.025 34.0678 285.262 34.0912 285.491 34.0457C285.72 34.0002 285.93 33.8878 286.095 33.7227L289.566 30.2525C289.897 29.9204 290.084 29.4701 290.084 29.0005C290.084 28.5309 289.897 28.0806 289.566 27.7485L286.095 24.2783C285.93 24.1132 285.72 24.0008 285.491 23.9553C285.262 23.9098 285.025 23.9331 284.809 24.0225C284.593 24.1118 284.409 24.2631 284.279 24.4572C284.149 24.6513 284.08 24.8795 284.08 25.1129V26.0491H281.229C279.821 26.0507 278.47 26.6109 277.474 27.6068C276.478 28.6028 275.918 29.9531 275.917 31.3616V35.4935C275.917 35.6501 275.979 35.8002 276.089 35.9109C276.2 36.0216 276.35 36.0838 276.507 36.0838ZM285.261 25.1129L288.731 28.5832C288.842 28.6939 288.904 28.844 288.904 29.0005C288.904 29.157 288.842 29.3071 288.731 29.4178L285.261 32.8881V31.3616C285.261 31.2051 285.198 31.0549 285.088 30.9442C284.977 30.8335 284.827 30.7713 284.67 30.7713H280.639C279.968 30.7711 279.306 30.9139 278.695 31.1902C278.084 31.4664 277.54 31.8698 277.097 32.3733V31.3616C277.098 30.2661 277.534 29.2159 278.309 28.4413C279.083 27.6666 280.134 27.2309 281.229 27.2297H284.67C284.827 27.2297 284.977 27.1675 285.088 27.0568C285.198 26.9461 285.261 26.7959 285.261 26.6394V25.1129Z" fill="white"/>
</g>
<rect x="9" y="12" width="252" height="34" rx="17" fill="#F3F3F3"/>
<path d="M26 38C23.596 38 21.3359 37.0638 19.636 35.364C17.9362 33.6641 17 31.404 17 29C17 26.596 17.9362 24.3359 19.636 22.636C21.3359 20.9362 23.596 20 26 20C28.404 20 30.6641 20.9362 32.364 22.636C34.0638 24.3359 35 26.596 35 29C35 31.404 34.0638 33.6641 32.364 35.364C30.6641 37.0638 28.404 38 26 38V38ZM26 21.4062C21.8128 21.4062 18.4062 24.8128 18.4062 29C18.4062 33.1872 21.8128 36.5938 26 36.5938C30.1872 36.5938 33.5938 33.1872 33.5938 29C33.5938 24.8128 30.1872 21.4062 26 21.4062ZM29.2954 30.5535C28.9678 30.345 28.5332 30.4415 28.3248 30.7692C28.3161 30.7828 27.4411 32.1311 25.9648 32.1311C24.4886 32.1311 23.6136 30.7828 23.6049 30.7692C23.3964 30.4416 22.9619 30.345 22.6342 30.5535C22.3066 30.762 22.2101 31.1966 22.4185 31.5241C22.4708 31.6063 23.7254 33.5373 25.9648 33.5373C28.2043 33.5373 29.4588 31.6064 29.5112 31.5241C29.7196 31.1965 29.6231 30.762 29.2954 30.5535V30.5535ZM22.9062 25.8008C23.3917 25.8008 23.7852 26.1943 23.7852 26.6797C23.7852 27.1651 23.3917 27.5586 22.9062 27.5586C22.4208 27.5586 22.0273 27.1651 22.0273 26.6797C22.0273 26.1943 22.4208 25.8008 22.9062 25.8008ZM28.1797 26.6797C28.1797 27.1651 28.5732 27.5586 29.0586 27.5586C29.544 27.5586 29.9375 27.1651 29.9375 26.6797C29.9375 26.1943 29.544 25.8008 29.0586 25.8008C28.5732 25.8008 28.1797 26.1943 28.1797 26.6797Z" fill="#161616"/>
<path d="M49.402 34H50.564V25.698H53.532V24.662H46.448V25.698H49.402V34ZM53.8673 35.694L53.6993 36.646C53.8953 36.702 54.2453 36.744 54.4693 36.744C55.3653 36.73 56.0513 36.352 56.4573 35.372L59.8453 27.238H58.6973L56.4573 32.782L54.2033 27.238H53.0693L55.8973 34.07L55.4493 35.092C55.2113 35.652 54.9033 35.806 54.4413 35.806C54.2733 35.806 54.0213 35.764 53.8673 35.694ZM61.9906 36.576V32.978C62.5366 33.734 63.3486 34.168 64.2726 34.168C66.0506 34.168 67.2826 32.796 67.2826 30.612C67.2826 28.414 66.0506 27.07 64.2726 27.07C63.3206 27.07 62.4806 27.56 61.9906 28.246V27.238H60.9406V36.576H61.9906ZM66.1766 30.612C66.1766 32.11 65.3646 33.23 64.0066 33.23C63.1806 33.23 62.3546 32.726 61.9906 32.138V29.086C62.3546 28.498 63.1806 28.008 64.0066 28.008C65.3646 28.008 66.1766 29.114 66.1766 30.612ZM68.5877 30.612C68.5877 32.726 70.0297 34.168 72.0317 34.168C73.1377 34.168 74.0477 33.804 74.7197 33.132L74.2157 32.446C73.6837 32.992 72.8997 33.3 72.1297 33.3C70.6737 33.3 69.7777 32.236 69.6937 30.962H75.1677V30.696C75.1677 28.666 73.9637 27.07 71.9197 27.07C69.9877 27.07 68.5877 28.652 68.5877 30.612ZM71.9057 27.938C73.4457 27.938 74.1177 29.184 74.1317 30.192H69.6937C69.7497 29.156 70.4637 27.938 71.9057 27.938ZM85.0557 34H86.1057V29.226C86.1057 27.756 85.3637 27.07 83.9497 27.07C82.9277 27.07 82.0037 27.658 81.5277 28.218V24.662H80.4777V34H81.5277V29.058C81.9337 28.512 82.7177 28.008 83.5297 28.008C84.4397 28.008 85.0557 28.358 85.0557 29.548V34ZM87.8103 30.612C87.8103 32.726 89.2523 34.168 91.2543 34.168C92.3603 34.168 93.2703 33.804 93.9423 33.132L93.4383 32.446C92.9063 32.992 92.1223 33.3 91.3523 33.3C89.8963 33.3 89.0003 32.236 88.9163 30.962H94.3903V30.696C94.3903 28.666 93.1863 27.07 91.1423 27.07C89.2103 27.07 87.8103 28.652 87.8103 30.612ZM91.1283 27.938C92.6683 27.938 93.3403 29.184 93.3543 30.192H88.9163C88.9723 29.156 89.6863 27.938 91.1283 27.938ZM96.091 34H97.141V29.212C97.449 28.666 98.331 28.134 98.975 28.134C99.143 28.134 99.269 28.148 99.395 28.176V27.098C98.471 27.098 97.687 27.616 97.141 28.33V27.238H96.091V34ZM100.32 30.612C100.32 32.726 101.762 34.168 103.764 34.168C104.87 34.168 105.78 33.804 106.452 33.132L105.948 32.446C105.416 32.992 104.632 33.3 103.862 33.3C102.406 33.3 101.51 32.236 101.426 30.962H106.9V30.696C106.9 28.666 105.696 27.07 103.652 27.07C101.72 27.07 100.32 28.652 100.32 30.612ZM103.638 27.938C105.178 27.938 105.85 29.184 105.864 30.192H101.426C101.482 29.156 102.196 27.938 103.638 27.938ZM108.295 33.37C108.295 33.79 108.645 34.14 109.065 34.14C109.485 34.14 109.835 33.79 109.835 33.37C109.835 32.95 109.485 32.6 109.065 32.6C108.645 32.6 108.295 32.95 108.295 33.37ZM111.522 33.37C111.522 33.79 111.872 34.14 112.292 34.14C112.712 34.14 113.062 33.79 113.062 33.37C113.062 32.95 112.712 32.6 112.292 32.6C111.872 32.6 111.522 32.95 111.522 33.37ZM114.748 33.37C114.748 33.79 115.098 34.14 115.518 34.14C115.938 34.14 116.288 33.79 116.288 33.37C116.288 32.95 115.938 32.6 115.518 32.6C115.098 32.6 114.748 32.95 114.748 33.37Z" fill="#21030B" fill-opacity="0.5"/>
<circle cx="244" cy="29" r="13" fill="#FF1654"/>
<path d="M249.533 23.467C249.355 23.2864 249.133 23.1549 248.889 23.0851C248.645 23.0154 248.387 23.0098 248.14 23.0688L240.176 24.7462C239.717 24.8091 239.285 24.9988 238.929 25.294C238.572 25.5891 238.305 25.978 238.157 26.4167C238.01 26.8555 237.987 27.3268 238.093 27.7774C238.199 28.2281 238.428 28.6403 238.756 28.9676L239.611 29.8223C239.657 29.8685 239.694 29.9235 239.719 29.984C239.744 30.0444 239.757 30.1092 239.757 30.1747V31.7515C239.758 31.9733 239.809 32.1919 239.906 32.3912L239.902 32.3946L239.915 32.4076C240.061 32.7008 240.299 32.938 240.593 33.0825L240.606 33.0955L240.609 33.0915C240.809 33.1887 241.027 33.2397 241.249 33.2408H242.826C242.958 33.2407 243.084 33.293 243.178 33.3862L244.032 34.2408C244.262 34.4725 244.534 34.6567 244.835 34.7825C245.136 34.9083 245.458 34.9734 245.784 34.974C246.056 34.9736 246.326 34.9293 246.583 34.8426C247.018 34.6998 247.404 34.4384 247.698 34.0878C247.992 33.7373 248.183 33.3115 248.248 32.8585L249.928 24.8772C249.99 24.6281 249.986 24.3672 249.917 24.12C249.848 23.8728 249.716 23.6478 249.533 23.467V23.467ZM240.316 29.1195L239.46 28.2648C239.261 28.0704 239.121 27.8231 239.057 27.5521C238.994 27.2811 239.009 26.9976 239.101 26.7348C239.19 26.4651 239.354 26.2268 239.575 26.048C239.795 25.8692 240.063 25.7576 240.345 25.7263L248.23 24.0663L240.751 31.546V30.1747C240.752 29.9787 240.714 29.7846 240.639 29.6035C240.564 29.4223 240.454 29.2578 240.316 29.1195V29.1195ZM247.27 32.6883C247.231 32.9632 247.117 33.2221 246.94 33.4357C246.763 33.6494 246.53 33.8095 246.267 33.898C246.004 33.9865 245.721 33.9999 245.451 33.9368C245.181 33.8736 244.933 33.7364 244.737 33.5405L243.881 32.6843C243.742 32.5454 243.578 32.4352 243.397 32.3602C243.216 32.2852 243.022 32.2468 242.826 32.2473H241.454L248.934 24.7701L247.27 32.6883Z" fill="white"/>
<defs>
<clipPath id="clip0">
<rect width="14.875" height="14.875" fill="white" transform="translate(315.916 21.917)"/>
</clipPath>
<clipPath id="clip1">
<rect width="14.1667" height="14.1667" fill="white" transform="matrix(-1 0 0 1 290.084 21.917)"/>
</clipPath>
</defs>
</svg>
