<svg width="452" height="53" viewBox="0 0 452 53" fill="none" xmlns="http://www.w3.org/2000/svg">
<rect width="452" height="53" rx="26.5" fill="#F3F3F3"/>
<path d="M60.888 31H62.216V21.512H65.608V20.328H57.512V21.512H60.888V31ZM65.9913 32.936L65.7993 34.024C66.0233 34.088 66.4233 34.136 66.6793 34.136C67.7033 34.12 68.4873 33.688 68.9513 32.568L72.8233 23.272H71.5113L68.9513 29.608L66.3753 23.272H65.0793L68.3113 31.08L67.7993 32.248C67.5273 32.888 67.1753 33.064 66.6473 33.064C66.4553 33.064 66.1673 33.016 65.9913 32.936ZM75.275 33.944V29.832C75.899 30.696 76.827 31.192 77.883 31.192C79.915 31.192 81.323 29.624 81.323 27.128C81.323 24.616 79.915 23.08 77.883 23.08C76.795 23.08 75.835 23.64 75.275 24.424V23.272H74.075V33.944H75.275ZM80.059 27.128C80.059 28.84 79.131 30.12 77.579 30.12C76.635 30.12 75.691 29.544 75.275 28.872V25.384C75.691 24.712 76.635 24.152 77.579 24.152C79.131 24.152 80.059 25.416 80.059 27.128ZM82.8145 27.128C82.8145 29.544 84.4625 31.192 86.7505 31.192C88.0145 31.192 89.0545 30.776 89.8225 30.008L89.2465 29.224C88.6385 29.848 87.7425 30.2 86.8625 30.2C85.1985 30.2 84.1745 28.984 84.0785 27.528H90.3345V27.224C90.3345 24.904 88.9585 23.08 86.6225 23.08C84.4145 23.08 82.8145 24.888 82.8145 27.128ZM86.6065 24.072C88.3665 24.072 89.1345 25.496 89.1505 26.648H84.0785C84.1425 25.464 84.9585 24.072 86.6065 24.072ZM101.635 31H102.835V25.544C102.835 23.864 101.987 23.08 100.371 23.08C99.2031 23.08 98.1471 23.752 97.6031 24.392V20.328H96.4031V31H97.6031V25.352C98.0671 24.728 98.9631 24.152 99.8911 24.152C100.931 24.152 101.635 24.552 101.635 25.912V31ZM104.783 27.128C104.783 29.544 106.431 31.192 108.719 31.192C109.983 31.192 111.023 30.776 111.791 30.008L111.215 29.224C110.607 29.848 109.711 30.2 108.831 30.2C107.167 30.2 106.143 28.984 106.047 27.528H112.303V27.224C112.303 24.904 110.927 23.08 108.591 23.08C106.383 23.08 104.783 24.888 104.783 27.128ZM108.575 24.072C110.335 24.072 111.103 25.496 111.119 26.648H106.047C106.111 25.464 106.927 24.072 108.575 24.072ZM114.247 31H115.447V25.528C115.799 24.904 116.807 24.296 117.543 24.296C117.735 24.296 117.879 24.312 118.023 24.344V23.112C116.967 23.112 116.071 23.704 115.447 24.52V23.272H114.247V31ZM119.08 27.128C119.08 29.544 120.728 31.192 123.016 31.192C124.28 31.192 125.32 30.776 126.088 30.008L125.512 29.224C124.904 29.848 124.008 30.2 123.128 30.2C121.464 30.2 120.44 28.984 120.344 27.528H126.6V27.224C126.6 24.904 125.224 23.08 122.888 23.08C120.68 23.08 119.08 24.888 119.08 27.128ZM122.872 24.072C124.632 24.072 125.4 25.496 125.416 26.648H120.344C120.408 25.464 121.224 24.072 122.872 24.072ZM128.194 30.28C128.194 30.76 128.594 31.16 129.074 31.16C129.554 31.16 129.954 30.76 129.954 30.28C129.954 29.8 129.554 29.4 129.074 29.4C128.594 29.4 128.194 29.8 128.194 30.28ZM131.882 30.28C131.882 30.76 132.282 31.16 132.762 31.16C133.242 31.16 133.642 30.76 133.642 30.28C133.642 29.8 133.242 29.4 132.762 29.4C132.282 29.4 131.882 29.8 131.882 30.28ZM135.569 30.28C135.569 30.76 135.969 31.16 136.449 31.16C136.929 31.16 137.329 30.76 137.329 30.28C137.329 29.8 136.929 29.4 136.449 29.4C135.969 29.4 135.569 29.8 135.569 30.28Z" fill="#21030B" fill-opacity="0.5"/>
<circle cx="425.5" cy="26.5" r="18.5" fill="#FF1654"/>
<g clip-path="url(#clip0)">
<path d="M355.816 32.9336L352.086 29.203C353.102 27.9596 353.602 26.373 353.482 24.7715C353.362 23.1699 352.63 21.6758 351.439 20.5983C350.248 19.5208 348.689 18.9423 347.083 18.9824C345.477 19.0226 343.949 19.6783 342.813 20.814C341.677 21.9497 341.022 23.4784 340.981 25.084C340.941 26.6896 341.52 28.2492 342.597 29.4402C343.675 30.6312 345.169 31.3625 346.77 31.4829C348.372 31.6032 349.959 31.1034 351.202 30.0867L354.933 33.8174C355.05 33.9312 355.208 33.9942 355.372 33.9928C355.536 33.9913 355.693 33.9256 355.809 33.8097C355.925 33.6939 355.99 33.5371 355.992 33.3732C355.993 33.2094 355.93 33.0515 355.816 32.9336ZM347.249 30.2505C346.261 30.2505 345.294 29.9572 344.472 29.4078C343.649 28.8584 343.009 28.0775 342.63 27.1639C342.252 26.2503 342.153 25.2449 342.346 24.275C342.538 23.3051 343.015 22.4142 343.714 21.7149C344.413 21.0157 345.304 20.5395 346.274 20.3465C347.244 20.1536 348.249 20.2526 349.163 20.6311C350.077 21.0095 350.857 21.6504 351.407 22.4726C351.956 23.2949 352.249 24.2616 352.249 25.2505C352.248 26.5761 351.721 27.847 350.783 28.7844C349.846 29.7217 348.575 30.249 347.249 30.2505Z" fill="white"/>
</g>
<g clip-path="url(#clip1)">
<path d="M433.377 18.6243C433.123 18.3673 432.807 18.1801 432.46 18.0808C432.112 17.9816 431.745 17.9736 431.394 18.0577L420.06 20.4447C419.408 20.5343 418.793 20.8042 418.285 21.2242C417.778 21.6442 417.398 22.1976 417.188 22.822C416.978 23.4464 416.946 24.117 417.096 24.7584C417.247 25.3997 417.574 25.9863 418.039 26.4521L419.256 27.6683C419.322 27.7342 419.374 27.8124 419.41 27.8984C419.446 27.9845 419.464 28.0767 419.464 28.1698V30.4138C419.465 30.7293 419.538 31.0404 419.676 31.324L419.671 31.329L419.689 31.3474C419.897 31.7647 420.236 32.1022 420.654 32.3079L420.672 32.3263L420.677 32.3207C420.961 32.459 421.272 32.5316 421.587 32.5332H423.831C424.019 32.533 424.199 32.6074 424.332 32.74L425.548 33.9562C425.875 34.286 426.263 34.548 426.691 34.7271C427.119 34.9062 427.578 34.9988 428.042 34.9996C428.428 34.9991 428.812 34.9359 429.179 34.8126C429.797 34.6094 430.347 34.2374 430.766 33.7385C431.184 33.2397 431.455 32.6337 431.547 31.9892L433.938 20.631C434.026 20.2766 434.021 19.9053 433.923 19.5535C433.825 19.2017 433.636 18.8815 433.377 18.6243ZM420.259 26.6682L419.042 25.452C418.758 25.1752 418.559 24.8234 418.469 24.4377C418.378 24.052 418.4 23.6485 418.53 23.2745C418.657 22.8908 418.891 22.5516 419.205 22.2972C419.519 22.0428 419.9 21.8839 420.301 21.8395L431.522 19.4772L420.879 30.1213V28.1698C420.88 27.891 420.826 27.6147 420.72 27.3569C420.613 27.0992 420.457 26.8651 420.259 26.6682ZM430.155 31.7469C430.101 32.1381 429.939 32.5065 429.687 32.8106C429.435 33.1147 429.103 33.3425 428.728 33.4684C428.354 33.5944 427.952 33.6135 427.567 33.5236C427.183 33.4337 426.831 33.2384 426.551 32.9596L425.332 31.7412C425.136 31.5435 424.902 31.3867 424.644 31.28C424.387 31.1732 424.11 31.1186 423.831 31.1193H421.88L432.524 20.4787L430.155 31.7469Z" fill="white"/>
</g>
<g clip-path="url(#clip2)">
<path d="M29 35C26.596 35 24.3359 34.0638 22.636 32.364C20.9362 30.6641 20 28.404 20 26C20 23.596 20.9362 21.3359 22.636 19.636C24.3359 17.9362 26.596 17 29 17C31.404 17 33.6641 17.9362 35.364 19.636C37.0638 21.3359 38 23.596 38 26C38 28.404 37.0638 30.6641 35.364 32.364C33.6641 34.0638 31.404 35 29 35ZM29 18.4062C24.8128 18.4062 21.4062 21.8128 21.4062 26C21.4062 30.1872 24.8128 33.5938 29 33.5938C33.1872 33.5938 36.5938 30.1872 36.5938 26C36.5938 21.8128 33.1872 18.4062 29 18.4062ZM32.2954 27.5535C31.9678 27.345 31.5332 27.4415 31.3248 27.7692C31.3161 27.7828 30.4411 29.1311 28.9648 29.1311C27.4886 29.1311 26.6136 27.7828 26.6049 27.7692C26.3964 27.4416 25.9619 27.345 25.6342 27.5535C25.3066 27.762 25.2101 28.1966 25.4185 28.5241C25.4708 28.6063 26.7254 30.5373 28.9648 30.5373C31.2043 30.5373 32.4588 28.6064 32.5112 28.5241C32.7196 28.1965 32.6231 27.762 32.2954 27.5535ZM25.9062 22.8008C26.3917 22.8008 26.7852 23.1943 26.7852 23.6797C26.7852 24.1651 26.3917 24.5586 25.9062 24.5586C25.4208 24.5586 25.0273 24.1651 25.0273 23.6797C25.0273 23.1943 25.4208 22.8008 25.9062 22.8008ZM31.1797 23.6797C31.1797 24.1651 31.5732 24.5586 32.0586 24.5586C32.544 24.5586 32.9375 24.1651 32.9375 23.6797C32.9375 23.1943 32.544 22.8008 32.0586 22.8008C31.5732 22.8008 31.1797 23.1943 31.1797 23.6797Z" fill="black"/>
</g>
<defs>
<clipPath id="clip0">
<rect width="15" height="15" fill="white" transform="translate(341 19)"/>
</clipPath>
<clipPath id="clip1">
<rect width="17" height="17" fill="white" transform="translate(417 18)"/>
</clipPath>
<clipPath id="clip2">
<rect width="18" height="18" fill="white" transform="translate(20 17)"/>
</clipPath>
</defs>
</svg>
